<svg width="250" height="250" xmlns="http://www.w3.org/2000/svg" xmlns:xlink="http://www.w3.org/1999/xlink">
 <!-- Created with SVG-edit - http://svg-edit.googlecode.com/ -->
 <defs>
  <svg id="svg_1" height="1052.362205" width="744.094488">
   <metadata id="metadata2621">image/svg+xml</metadata>
   <g id="layer1">
    <path fill="#000000" id="path2546" d="m478.966156,410.795807c-0.743713,0.006714 -0.084564,1.415558 1.875,4.40625c3.822083,5.833221 4.252289,20.388245 0.84375,28.09375c-2.879028,6.508545 -8.774963,11.749634 -8.90625,7.90625c-0.034393,-1.007874 -0.972534,0.660248 -2.0625,3.71875c-2.113159,5.929749 -4.191528,7.933655 -8.28125,7.96875c-2.120728,0.018188 -2.264496,-0.453857 -0.96875,-2.875c1.57605,-2.944885 0.508392,-15.625031 -1.3125,-15.625c-4.816864,0 -11.58075,12.709229 -9.5625,17.96875c1.158081,3.017944 -0.856995,2.410156 -7.0625,-2.125c-8.427612,-6.15921 -29.30545,-17.373474 -30.71875,-16.5c-1.610382,0.99527 -25.191895,3.639496 -29.8125,3.34375c-11.869995,-0.759674 -15.695709,-0.096558 -26.15625,4.5c-8.556854,3.760071 -12.248596,6.330017 -15.6875,10.875c-2.737579,3.618134 -7.284332,7.22525 -11.625,9.25c-4.547394,2.121155 -13.083038,9.078491 -23.59375,19.21875c-15.678833,15.126251 -28.223297,24.749969 -32.28125,24.749969c-1.022797,0 -1.874969,-1.488647 -1.875,-3.3125c0,-3.404724 -3.334167,-7.092651 -10.46875,-11.531219c-2.231689,-1.388397 -5.108948,-4.375824 -6.406235,-6.65625c-2.750854,-4.835541 -4.500015,-5.345245 -4.5,-1.3125c0,1.568451 -0.653275,2.843719 -1.4375,2.84375c-0.784225,0 -1.437485,-1.928589 -1.4375,-4.28125c0,-2.352692 -0.549698,-4.28125 -1.25,-4.28125c-2.526978,0 -2.956573,4.549377 -0.875,9.53125c2.607559,6.240814 2.621918,6.15625 0,6.15625c-2.644135,0 -2.650024,-0.000275 0.15625,5.625c1.856293,3.721039 2.935852,4.44046 5.5625,3.781219c2.146744,-0.538788 3.523712,-0.091553 4.0625,1.3125c0.449265,1.170776 2.273361,2.16571 4.062485,2.21875l3.28125,0.09375l-3.21875,1.5625l-3.21875,1.5625l4.3125,2.625c2.374695,1.444153 5.039886,4.217407 5.9375,6.1875c1.389771,3.050232 1.191193,4.076904 -1.4375,6.875c-4.140869,4.407776 -3.920624,6.116089 1.125,7.875c4.228638,1.474121 4.252411,1.483215 2.15625,6.5c-2.750275,6.582336 -2.784851,8.889709 -0.09375,6.65625c3.117859,-2.587585 3.947937,0.251526 2.96875,10.21875c-0.872559,8.881714 -0.859222,8.914734 1.84375,5.84375l2.71875,-3.09375l3.1875,6.59375l3.21875,6.625l-3.125,2.53125c-3.243896,2.62677 -15.69458,6.8125 -20.21875,6.8125c-4.33876,0 -2.975906,4.759888 3.0625,10.65625c8.284576,8.089661 11.755646,16.304016 10.59375,25.0625c-0.644592,4.859375 -0.357117,7.727722 0.90625,9.25c1.388428,1.672974 1.437714,2.624817 0.1875,3.875c-2.542084,2.542114 -1.973907,7.901123 1.1875,11.0625c2.94281,2.94281 9.23587,3.710083 12.625,1.5625c1.561859,-0.989685 1.611023,-1.840088 0.1875,-4.5c-1.169586,-2.185364 -1.484802,-6.565308 -0.9375,-13.09375c0.770691,-9.192566 0.531097,-10.393616 -3.9375,-18.65625c-6.622742,-12.24585 -7.269623,-14.885315 -4.28125,-18.1875c3.321228,-3.669861 4.435425,-3.459412 5.5625,1.03125c0.710693,2.831665 1.336945,3.350586 2.5625,2.125c2.295746,-2.295715 3.612885,-2.020996 4.3125,0.875c0.444458,1.839722 1.200592,1.138123 2.875,-2.625c1.249115,-2.80719 3.392365,-6.011047 4.75,-7.125c2.22995,-1.82959 2.371857,-1.710693 1.625,1.1875c-0.454651,1.764526 -0.282928,3.21875 0.375,3.21875c1.241058,0 1.604187,-0.94281 4.21875,-11.0625c1.172363,-4.537476 2.249634,-6.062439 4.34375,-6.0625c2.014648,0 2.8125,0.992859 2.8125,3.5c0,4.089783 2.197937,5.973633 3.375,2.90625c0.449677,-1.171814 1.488739,-2.124939 2.3125,-2.125c2.009247,0 0.622955,5.904663 -3.78125,16.125c-1.963806,4.557251 -3.273468,9.074341 -2.90625,10.03125c0.367249,0.95697 3.914978,2.578857 7.875,3.59375c7.90329,2.025574 21.546143,9.680298 27.6875,15.53125c2.965332,2.825073 3.9375,5.086914 3.9375,9.28125c0,4.228394 0.980408,6.542908 4.15625,9.71875c4.141144,4.141174 4.176788,4.134644 8.53125,1.65625c2.40921,-1.371216 4.401306,-3.060852 4.40625,-3.75c0.004974,-0.689148 -1.721954,-6.358948 -3.84375,-12.625l-3.875,-11.40625l-10.375,-4.71875c-5.707489,-2.600952 -13.944366,-7.100586 -18.3125,-10c-7.069366,-4.692383 -7.885132,-5.766235 -7.5,-9.625c0.536865,-5.378479 4,-7.028748 4,-1.90625c0,1.979614 0.57016,3.966797 1.28125,4.40625c0.711121,0.439514 0.981079,-0.393921 0.59375,-1.875c-0.918976,-3.51416 1.588379,-5.030029 3.84375,-2.3125c3.187164,3.840332 3.944702,2.223022 1.84375,-3.875c-2.311951,-6.710449 -0.834839,-12.531189 3.1875,-12.53125c1.784546,0 2.140411,1.033447 1.53125,4.65625c-0.588074,3.49762 -0.239929,3.061584 1.4375,-1.78125c1.222382,-3.528992 2.390778,-11.735413 2.59375,-18.21875c0.203033,-6.483337 0.795105,-12.201355 1.3125,-12.71875c0.517426,-0.517395 1.85672,0.270081 3,1.78125c1.887573,2.494934 2.083832,2.546997 2.125,0.28125c0.026672,-1.466919 1.157654,-2.499939 2.71875,-2.5c2.162445,0 2.828827,-1.491638 3.59375,-8c0.516632,-4.39563 1.62735,-9.271484 2.46875,-10.84375c1.462433,-2.732544 1.637604,-2.683899 4.125,1.40625c3.10791,5.110596 6.001923,7.181702 6.78125,4.84375c1.047028,-3.141052 3.332031,-1.671448 5.75,3.6875l2.40625,5.34375l0.4375,-6.21875c0.443146,-6.035339 0.52948,-6.121216 3.21875,-3.6875c1.519592,1.375244 2.78125,3.760559 2.78125,5.3125c0,5.240173 -3.269348,13.780029 -5.5625,14.53125c-1.252686,0.4104 -3.751495,2.996399 -5.53125,5.75l-3.21875,5.03125l-4.15625,-3.09375c-4.106781,-3.036255 -4.221069,-3.037109 -8.1875,-0.375c-2.223938,1.492676 -4.039551,4.083313 -4.09375,5.78125c-0.08902,2.788757 0.862946,3.144775 10.65625,4.0625l10.75,1l6.0625,-6.90625c5.893341,-6.735657 6.065247,-6.845032 6.09375,-3.03125c0.022156,2.960815 0.72171,3.937561 2.875,3.9375c1.568451,0 2.84375,0.62207 2.84375,1.40625c0,2.687744 3.749695,1.451782 7.40625,-2.46875c5.9245,-6.35199 7.268433,-10.089478 6.28125,-17.53125c-0.783295,-5.904724 -0.440948,-7.344543 2.6875,-11.0625c4.374542,-5.198792 4.519928,-7.568909 0.625,-11.09375c-4.091034,-3.702332 -5.741882,-7.114929 -4.71875,-9.78125c1.325958,-3.455322 3.844086,-2.698486 9.125,2.75c8.050873,8.306458 14.647644,6.279968 29.84375,-9.25c4.603302,-4.704407 9.410187,-8.5625 10.6875,-8.562469c1.277374,0 2.910889,-1.601929 3.65625,-3.5625c1.250854,-3.290009 2.074615,-3.562531 10.5,-3.5625c6.439362,0 9.665253,-0.65451 10.9375,-2.1875c2.136139,-2.573883 1.224701,-3.744354 -4.4375,-5.6875l-4.21875,-1.4375l14.34375,-13.3125c14.416168,-13.389191 18.915649,-19.669525 20.625,-28.78125c0.986115,-5.256439 -1.069031,-12.750031 -3.5,-12.75c-0.803619,0 -1.482758,2.076263 -1.5,4.625c-0.036621,5.420776 -4.017212,14.432129 -8.75,19.8125c-3.987518,4.533142 -16.509521,14.062469 -18.5,14.0625c-0.776154,0 1.438446,-3.709473 4.9375,-8.21875c9.43457,-12.158417 12.661316,-19.456451 12.75,-28.875c0.084747,-8.995392 -4.086426,-18.311707 -9.90625,-22.125c-1.458069,-0.955353 -2.428741,-1.472778 -2.875,-1.46875zm-68.15625,75.03125c1.202759,0.023071 2.560364,0.597504 4.09375,1.71875c2.05719,1.504242 2.213562,2.538422 0.96875,5.8125c-0.830475,2.184357 -1.5,5.527985 -1.5,7.4375c0,1.909485 -0.833221,3.468719 -1.84375,3.46875c-1.010498,0 -4.361053,1.275299 -7.4375,2.84375c-3.076416,1.56842 -5.762573,2.874969 -5.96875,2.875c-0.206146,0 -1.303528,-1.871796 -2.46875,-4.125c-2.315491,-4.477661 -1.499725,-6.765533 1.53125,-4.25c1.553864,1.289581 1.9375,0.352081 1.9375,-5c0,-6.471283 2.030548,-9.002502 3.28125,-4.09375c0.481018,1.887848 1.078522,1.349731 2.53125,-2.15625c1.272278,-3.070465 2.870422,-4.569702 4.875,-4.53125zm-161.843735,22.71875c0.784225,0 1.437485,0.653259 1.4375,1.4375c0,0.784241 -0.653275,1.40625 -1.4375,1.40625c-0.784225,0 -1.437485,-0.62204 -1.4375,-1.40625c0,-0.78421 0.653275,-1.4375 1.4375,-1.4375zm143.843735,21.374969c3.299774,0 7.3125,3.591064 7.3125,6.53125c0,2.814087 -3.412964,2.543701 -6,-0.46875c-4.001587,-4.659546 -4.286194,-6.0625 -1.3125,-6.0625zm4.1875,18.53125c2.244843,0 2.171387,6.406555 -0.09375,8.21875c-0.980286,0.784302 -3.235504,1.865295 -5,2.40625c-2.543549,0.779785 -3.1875,0.421326 -3.1875,-1.71875c0,-2.931763 5.55014,-8.90625 8.28125,-8.90625z"/>
   </g>
  </svg>
 </defs>
 <g>
  <title>Layer 1</title>
  <use x="-37.677779" y="-64.582007" transform="matrix(0.9023886462859139,0,0,0.9445355311369212,-181.39978473839437,-324.7585963230813) " id="svg_2" xlink:href="#svg_1"/>
  <text transform="rotate(-38.65980911254883 175.00000000000003,152.5) " xml:space="preserve" text-anchor="middle" font-family="Sans-serif" font-size="24" id="svg_3" y="161" x="175" stroke-linecap="null" stroke-linejoin="null" stroke-width="0" stroke="null" fill="#000000">Rishi IT-Ibex</text>
 </g>
</svg>